<svg width="27" height="27" viewBox="0 0 27 27" fill="none" xmlns="http://www.w3.org/2000/svg">
<path d="M24.0002 0H3.00024C2.20532 0.00237409 1.44364 0.319207 0.881546 0.881302C0.319451 1.4434 0.00261823 2.20508 0.000244141 3V24C0.00261823 24.7949 0.319451 25.5566 0.881546 26.1187C1.44364 26.6808 2.20532 26.9976 3.00024 27H24.0002C24.7952 26.9976 25.5568 26.6808 26.1189 26.1187C26.681 25.5566 26.9979 24.7949 27.0002 24V3C26.9979 2.20508 26.681 1.4434 26.1189 0.881302C25.5568 0.319207 24.7952 0.00237409 24.0002 0ZM6.75024 22.5C6.30524 22.5 5.87022 22.368 5.50021 22.1208C5.1302 21.8736 4.84181 21.5222 4.67152 21.111C4.50122 20.6999 4.45666 20.2475 4.54348 19.811C4.63029 19.3746 4.84459 18.9737 5.15925 18.659C5.47392 18.3443 5.87483 18.1301 6.31129 18.0432C6.74775 17.9564 7.20015 18.001 7.61128 18.1713C8.02242 18.3416 8.37382 18.63 8.62105 19C8.86828 19.37 9.00024 19.805 9.00024 20.25C9.00064 20.5456 8.94271 20.8383 8.82978 21.1115C8.71684 21.3847 8.55113 21.6329 8.34212 21.8419C8.13311 22.0509 7.88491 22.2166 7.61175 22.3295C7.33859 22.4425 7.04583 22.5004 6.75024 22.5ZM6.75024 9C6.30524 9 5.87022 8.86804 5.50021 8.62081C5.1302 8.37357 4.84181 8.02217 4.67152 7.61104C4.50122 7.1999 4.45666 6.7475 4.54348 6.31105C4.63029 5.87459 4.84459 5.47368 5.15925 5.15901C5.47392 4.84434 5.87483 4.63005 6.31129 4.54323C6.74775 4.45642 7.20015 4.50097 7.61128 4.67127C8.02242 4.84157 8.37382 5.12996 8.62105 5.49997C8.86828 5.86998 9.00024 6.30499 9.00024 6.75C9.00064 7.04559 8.94271 7.33834 8.82978 7.6115C8.71684 7.88467 8.55113 8.13286 8.34212 8.34187C8.13311 8.55088 7.88491 8.7166 7.61175 8.82953C7.33859 8.94247 7.04583 9.00039 6.75024 9ZM13.5002 15.75C13.0552 15.75 12.6202 15.618 12.2502 15.3708C11.8802 15.1236 11.5918 14.7722 11.4215 14.361C11.2512 13.9499 11.2067 13.4975 11.2935 13.061C11.3803 12.6246 11.5946 12.2237 11.9093 11.909C12.2239 11.5943 12.6248 11.38 13.0613 11.2932C13.4977 11.2064 13.9501 11.251 14.3613 11.4213C14.7724 11.5916 15.1238 11.88 15.371 12.25C15.6183 12.62 15.7502 13.055 15.7502 13.5C15.7506 13.7956 15.6927 14.0883 15.5798 14.3615C15.4668 14.6347 15.3011 14.8829 15.0921 15.0919C14.8831 15.3009 14.6349 15.4666 14.3617 15.5795C14.0886 15.6925 13.7958 15.7504 13.5002 15.75ZM20.2502 22.5C19.8052 22.5 19.3702 22.368 19.0002 22.1208C18.6302 21.8736 18.3418 21.5222 18.1715 21.111C18.0012 20.6999 17.9567 20.2475 18.0435 19.811C18.1303 19.3746 18.3446 18.9737 18.6593 18.659C18.9739 18.3443 19.3748 18.1301 19.8113 18.0432C20.2477 17.9564 20.7001 18.001 21.1113 18.1713C21.5224 18.3416 21.8738 18.63 22.121 19C22.3683 19.37 22.5002 19.805 22.5002 20.25C22.5006 20.5456 22.4427 20.8383 22.3298 21.1115C22.2168 21.3847 22.0511 21.6329 21.8421 21.8419C21.6331 22.0509 21.3849 22.2166 21.1117 22.3295C20.8386 22.4425 20.5458 22.5004 20.2502 22.5ZM20.2502 9C19.8052 9 19.3702 8.86804 19.0002 8.62081C18.6302 8.37357 18.3418 8.02217 18.1715 7.61104C18.0012 7.1999 17.9567 6.7475 18.0435 6.31105C18.1303 5.87459 18.3446 5.47368 18.6593 5.15901C18.9739 4.84434 19.3748 4.63005 19.8113 4.54323C20.2477 4.45642 20.7001 4.50097 21.1113 4.67127C21.5224 4.84157 21.8738 5.12996 22.121 5.49997C22.3683 5.86998 22.5002 6.30499 22.5002 6.75C22.5006 7.04559 22.4427 7.33834 22.3298 7.6115C22.2168 7.88467 22.0511 8.13286 21.8421 8.34187C21.6331 8.55088 21.3849 8.7166 21.1117 8.82953C20.8386 8.94247 20.5458 9.00039 20.2502 9Z" fill="black"/>
</svg>
