<svg width="90" height="129" viewBox="0 0 90 129" fill="none" xmlns="http://www.w3.org/2000/svg">
<path d="M44.6181 0.962902C38.7576 0.958694 32.9538 2.1099 27.5386 4.35068C22.1234 6.59145 17.2031 9.87783 13.0591 14.0218C8.91506 18.1658 5.62868 23.0862 3.38791 28.5014C1.14713 33.9166 -0.00407411 39.7204 0.000133563 45.5809C0.000133563 79.0449 44.6181 128.444 44.6181 128.444C44.6181 128.444 89.2361 79.0439 89.2361 45.5809C89.2403 39.7204 88.0891 33.9166 85.8484 28.5014C83.6076 23.0862 80.3212 18.1658 76.1772 14.0218C72.0332 9.87783 67.1129 6.59145 61.6977 4.35068C56.2825 2.1099 50.4786 0.958694 44.6181 0.962902ZM44.6181 61.5169C41.4666 61.5167 38.3858 60.582 35.7655 58.831C33.1452 57.0799 31.1029 54.5912 29.8969 51.6795C28.691 48.7678 28.3755 45.5639 28.9904 42.4729C29.6053 39.3819 31.1229 36.5426 33.3514 34.3142C35.5799 32.0857 38.4191 30.568 41.5101 29.9531C44.6011 29.3383 47.805 29.6537 50.7167 30.8597C53.6284 32.0657 56.1171 34.1079 57.8682 36.7283C59.6192 39.3486 60.5539 42.4293 60.5541 45.5809C60.5528 49.807 58.8734 53.8596 55.8851 56.8479C52.8968 59.8362 48.8442 61.5156 44.6181 61.5169Z" fill="#BDDBFF"/>
</svg>
